<svg width="20" height="21" viewBox="0 0 20 21" fill="none" xmlns="http://www.w3.org/2000/svg">
<g clip-path="url(#clip0_87_38533)">
<path d="M0 10.5C0 4.97715 4.47715 0.5 10 0.5C15.5228 0.5 20 4.97715 20 10.5C20 16.0228 15.5228 20.5 10 20.5C4.47715 20.5 0 16.0228 0 10.5Z" fill="url(#paint0_linear_87_38533)"/>
<path fill-rule="evenodd" clip-rule="evenodd" d="M10.0578 5.05536C9.62695 5.48626 9.491 6.12102 9.50045 6.71222C9.08315 6.57322 8.6364 6.49791 8.16665 6.49791C5.76032 6.49791 4 8.2135 4 10.5988C4 11.7494 4.41187 13.1874 5.10195 14.3434C5.77971 15.4788 6.82726 16.5 8.16665 16.5C8.82975 16.5 9.4471 16.3499 10.0001 16.0827C10.5532 16.35 11.1702 16.5 11.8333 16.5C13.1727 16.5 14.2203 15.4788 14.8981 14.3434C15.5882 13.1874 16 11.7494 16 10.5988C16 8.35288 14.4394 6.70069 12.2484 6.51527C12.4036 6.21153 12.4629 5.8904 12.4859 5.64487C12.5198 5.28231 12.4743 4.93354 12.4222 4.57523C12.0636 4.52444 11.7157 4.4776 11.3528 4.51155C10.9865 4.54583 10.4518 4.66126 10.0578 5.05536ZM8.16665 7.49812C6.29523 7.49812 5 8.7831 5 10.5988C5 11.5486 5.35202 12.8112 5.96055 13.8307C6.5814 14.8707 7.36718 15.4998 8.16665 15.4998C8.6974 15.4998 9.18475 15.3753 9.61905 15.1553C9.8582 15.0342 10.1418 15.0342 10.381 15.1553C10.8156 15.3754 11.3027 15.4998 11.8334 15.4998C12.6328 15.4998 13.4186 14.8707 14.0394 13.8307C14.648 12.8112 15 11.5486 15 10.5988C15 8.7831 13.7048 7.49812 11.8334 7.49812C11.3086 7.49812 10.8154 7.6227 10.3819 7.8426C10.1426 7.96398 9.85885 7.96412 9.6194 7.84282C9.1847 7.62261 8.69735 7.49812 8.16665 7.49812ZM10.5058 6.49212C10.7586 6.47417 11.0489 6.41922 11.2351 6.23295C11.4213 6.04669 11.4763 5.75629 11.4943 5.50345C11.2415 5.5214 10.9511 5.57635 10.7649 5.76262C10.5787 5.94888 10.5237 6.23929 10.5058 6.49212Z" fill="white"/>
<path fill-rule="evenodd" clip-rule="evenodd" d="M8.16665 7.49812C6.29523 7.49812 5 8.7831 5 10.5988C5 11.5486 5.35202 12.8112 5.96055 13.8307C6.5814 14.8707 7.36718 15.4998 8.16665 15.4998C8.6974 15.4998 9.18475 15.3753 9.61905 15.1553C9.8582 15.0342 10.1418 15.0342 10.381 15.1553C10.8156 15.3754 11.3027 15.4998 11.8334 15.4998C12.6328 15.4998 13.4186 14.8707 14.0394 13.8307C14.648 12.8112 15 11.5486 15 10.5988C15 8.7831 13.7048 7.49812 11.8334 7.49812C11.3086 7.49812 10.8154 7.6227 10.3819 7.8426C10.1426 7.96398 9.85885 7.96412 9.6194 7.84282C9.1847 7.62261 8.69735 7.49812 8.16665 7.49812ZM11.5 8.9984C11.5 8.7222 11.7239 8.49831 12 8.49831C12.5449 8.49831 13.0508 8.68155 13.4232 9.0439C13.7977 9.40835 14 9.9181 14 10.4988C14 10.775 13.7761 10.9988 13.5 10.9988C13.2239 10.9988 13 10.775 13 10.4988C13 10.1561 12.885 9.9157 12.7259 9.7608C12.5646 9.6038 12.3205 9.4985 12 9.4985C11.7239 9.4985 11.5 9.2746 11.5 8.9984Z" fill="white"/>
</g>
<defs>
<linearGradient id="paint0_linear_87_38533" x1="-10" y1="10.5" x2="10" y2="30.5" gradientUnits="userSpaceOnUse">
<stop stop-color="#FF5263"/>
<stop offset="1" stop-color="#FF3347"/>
</linearGradient>
<clipPath id="clip0_87_38533">
<rect width="20" height="20" fill="white" transform="translate(0 0.5)"/>
</clipPath>
</defs>
</svg>
