<svg width="17" height="17" viewBox="0 0 17 17" fill="none" xmlns="http://www.w3.org/2000/svg">
<g clip-path="url(#clip0_131_2601)">
<path fill-rule="evenodd" clip-rule="evenodd" d="M12.114 2.4133C16.8567 4.6248 17.7129 8.07571 15.4752 12.22C13.2376 16.3642 7.98987 16.9688 5.80227 15.9487C5.50337 15.8094 5.21967 15.6535 4.95157 15.4827C4.64837 15.387 4.34657 15.2699 4.04767 15.1305C1.34387 13.8697 -0.682329 9.5681 0.686471 5.3238C2.05527 1.0796 5.85897 -0.503495 10.3594 1.5951C14.8598 3.6937 7.37137 0.201704 12.114 2.4133Z" fill="#FE5951"/>
<path style="mix-blend-mode:soft-light" fill-rule="evenodd" clip-rule="evenodd" d="M12.114 2.4133C16.8567 4.6248 17.7129 8.07571 15.4752 12.22C13.2376 16.3642 7.98987 16.9688 5.80227 15.9487C5.50337 15.8094 5.21967 15.6535 4.95157 15.4827C4.64837 15.387 4.34657 15.2699 4.04767 15.1305C1.34387 13.8697 -0.682329 9.5681 0.686471 5.3238C2.05527 1.0796 5.85897 -0.503495 10.3594 1.5951C14.8598 3.6937 7.37137 0.201704 12.114 2.4133Z" fill="url(#paint0_linear_131_2601)"/>
<g opacity="0.8" filter="url(#filter0_f_131_2601)">
<path opacity="0.8" d="M9.48327 5.76399C7.47598 4.82798 6.21506 3.28363 6.66693 2.31459C7.1188 1.34556 9.11234 1.31879 11.1196 2.2548C13.1269 3.19082 14.3878 4.73517 13.936 5.7042C13.4841 6.67324 11.4906 6.70001 9.48327 5.76399Z" fill="url(#paint1_radial_131_2601)"/>
</g>
<g opacity="0.3" filter="url(#filter1_f_131_2601)">
<path opacity="0.3" d="M5.17433 11.0785C6.90475 11.8854 8.77851 11.5295 9.35948 10.2836C9.94046 9.03773 9.00865 7.3736 7.27822 6.56669C5.5478 5.75978 3.67405 6.11566 3.09307 7.36156C2.5121 8.60746 3.44391 10.2716 5.17433 11.0785Z" fill="white"/>
</g>
<g filter="url(#filter2_f_131_2601)">
<path d="M4.5139 9.54989C5.20607 9.87265 6.02884 9.57319 6.3516 8.88102C6.67437 8.18885 6.3749 7.36608 5.68273 7.04331C4.99056 6.72055 4.16779 7.02001 3.84503 7.71218C3.52226 8.40435 3.82172 9.22712 4.5139 9.54989Z" fill="white"/>
</g>
<path fill-rule="evenodd" clip-rule="evenodd" d="M11.9235 0.7686L12.6271 1.2083C12.6271 1.2083 12.0267 1.7634 11.7822 2.0745C11.3406 2.5567 10.4263 4.0447 10.4263 4.0447C10.4263 4.0447 10.3879 4.0778 10.2946 4.0311C10.2013 3.9844 10.1934 3.932 10.1934 3.932C10.1934 3.932 10.8373 2.3933 11.1052 1.8933C11.3731 1.3934 11.9235 0.7686 11.9235 0.7686Z" fill="#93420C"/>
<path style="mix-blend-mode:soft-light" fill-rule="evenodd" clip-rule="evenodd" d="M11.9235 0.7686L12.6271 1.2083C12.6271 1.2083 12.0267 1.7634 11.7822 2.0745C11.3406 2.5567 10.4263 4.0447 10.4263 4.0447C10.4263 4.0447 10.3879 4.0778 10.2946 4.0311C10.2013 3.9844 10.1934 3.932 10.1934 3.932C10.1934 3.932 10.8373 2.3933 11.1052 1.8933C11.3731 1.3934 11.9235 0.7686 11.9235 0.7686Z" fill="url(#paint2_linear_131_2601)"/>
<path d="M12.1285 1.22295C12.3228 1.34437 12.546 1.33778 12.6269 1.20825C12.7078 1.07871 12.6159 0.875279 12.4216 0.753865C12.2273 0.632452 12.0042 0.639036 11.9233 0.768571C11.8423 0.898106 11.9342 1.10154 12.1285 1.22295Z" fill="#B75E22"/>
</g>
<defs>
<filter id="filter0_f_131_2601" x="1.5752" y="-3.43006" width="17.4526" height="14.8789" filterUnits="userSpaceOnUse" color-interpolation-filters="sRGB">
<feFlood flood-opacity="0" result="BackgroundImageFix"/>
<feBlend mode="normal" in="SourceGraphic" in2="BackgroundImageFix" result="shape"/>
<feGaussianBlur stdDeviation="2.5" result="effect1_foregroundBlur_131_2601"/>
</filter>
<filter id="filter1_f_131_2601" x="-19.0796" y="-15.8654" width="50.6118" height="49.376" filterUnits="userSpaceOnUse" color-interpolation-filters="sRGB">
<feFlood flood-opacity="0" result="BackgroundImageFix"/>
<feBlend mode="normal" in="SourceGraphic" in2="BackgroundImageFix" result="shape"/>
<feGaussianBlur stdDeviation="11" result="effect1_foregroundBlur_131_2601"/>
</filter>
<filter id="filter2_f_131_2601" x="-18.2849" y="-15.0866" width="46.7664" height="46.7664" filterUnits="userSpaceOnUse" color-interpolation-filters="sRGB">
<feFlood flood-opacity="0" result="BackgroundImageFix"/>
<feBlend mode="normal" in="SourceGraphic" in2="BackgroundImageFix" result="shape"/>
<feGaussianBlur stdDeviation="11" result="effect1_foregroundBlur_131_2601"/>
</filter>
<linearGradient id="paint0_linear_131_2601" x1="-2.53243" y1="12.0622" x2="12.34" y2="18.9973" gradientUnits="userSpaceOnUse">
<stop stop-color="white" stop-opacity="0.5"/>
<stop offset="1" stop-opacity="0.5"/>
</linearGradient>
<radialGradient id="paint1_radial_131_2601" cx="0" cy="0" r="1" gradientUnits="userSpaceOnUse" gradientTransform="translate(6.22911 3.70469) rotate(115) scale(3.44261 13.7445)">
<stop stop-color="#EE2A23"/>
<stop offset="1" stop-color="#FF9E9A"/>
</radialGradient>
<linearGradient id="paint2_linear_131_2601" x1="9.90886" y1="3.7924" x2="10.7025" y2="4.2883" gradientUnits="userSpaceOnUse">
<stop stop-color="white" stop-opacity="0.5"/>
<stop offset="1" stop-opacity="0.5"/>
</linearGradient>
<clipPath id="clip0_131_2601">
<rect width="17" height="17" fill="white"/>
</clipPath>
</defs>
</svg>
