<svg width="69" height="44" viewBox="0 0 69 44" fill="none" xmlns="http://www.w3.org/2000/svg">
<rect x="44.3571" y="17.181" width="24.6429" height="12.2722" rx="3.68165" fill="black"/>
<rect y="17.181" width="7.39286" height="2.45444" rx="1.22722" fill="black"/>
<rect y="24.5443" width="9.85714" height="2.45444" rx="1.22722" fill="black"/>
<rect width="9.82869" height="2.46156" rx="1.23078" transform="matrix(0.528385 0.849005 -0.850895 0.525336 43.9875 34.3623)" fill="black"/>
<rect width="9.82836" height="2.46164" rx="1.23082" transform="matrix(-0.520124 0.854091 -0.855933 -0.517087 49.1118 6.18182)" fill="black"/>
<ellipse cx="25.875" cy="25.7716" rx="8.625" ry="8.59053" fill="#383838"/>
<ellipse cx="33.2678" cy="20.8627" rx="8.625" ry="8.59053" fill="white"/>
<ellipse cx="24.6429" cy="14.7267" rx="9.85714" ry="9.81774" fill="#383838"/>
<ellipse cx="14.7857" cy="24.5443" rx="7.39286" ry="7.36331" fill="#383838"/>
<ellipse cx="39.4286" cy="17.1811" rx="7.39286" ry="7.36331" fill="#383838"/>
<ellipse cx="34.5" cy="7.36331" rx="7.39286" ry="7.36331" fill="#383838"/>
<ellipse cx="13.5536" cy="15.9539" rx="8.625" ry="8.59052" fill="#383838"/>
<ellipse cx="48.0536" cy="20.8627" rx="8.625" ry="8.59053" fill="#383838"/>
<ellipse cx="19.7143" cy="31.9077" rx="4.92857" ry="4.90887" fill="#383838"/>
<ellipse cx="35.7321" cy="28.226" rx="11.0893" ry="11.045" fill="#383838"/>
<ellipse cx="60.375" cy="20.8627" rx="1.23214" ry="1.22722" fill="white"/>
<ellipse cx="60.375" cy="25.7715" rx="1.23214" ry="1.22722" fill="white"/>
</svg>
