<svg width="12" height="12" viewBox="0 0 12 12" fill="none" xmlns="http://www.w3.org/2000/svg">
<circle cx="6" cy="6" r="6" fill="#FFDD63"/>
<path d="M4.90782 4.98634C5.21058 5.14363 3.4938 3.22173 5.03475 2.69749C6.05358 2.35088 6.49432 3.06085 6.44743 4.10232C6.81102 3.3318 7.70172 2.56358 8.60889 3.65218C9.1332 4.28135 8.95199 4.90625 8.36752 5.26152C9.03964 5.28988 9.53615 5.6891 9.3915 6.45918C9.17244 7.62535 8.21425 7.37791 7.53432 6.9282C8.35648 7.82479 8.00834 9.00033 7.00464 9.22016C6.07646 9.42344 5.70954 8.69269 5.69663 7.78088C5.39852 8.56219 4.45085 9.31192 3.78147 8.85777C2.61445 8.06598 3.50204 6.8847 4.30754 6.54704C3.46988 6.71542 2.36922 6.47916 2.65509 5.14363C2.95109 3.76077 4.53332 4.16468 4.90782 4.98634Z" fill="#FFC700"/>
<path d="M5.75264 7.05883C6.03424 7.9583 4.66529 9.45741 3.78147 8.85777C2.45574 7.9583 3.78147 6.55618 4.62626 6.45918C3.78989 6.759 2.3309 6.65819 2.65509 5.14363C2.95109 3.76077 4.53332 4.16468 4.90782 4.98634C5.21058 5.14363 3.4938 3.22173 5.03475 2.69749C6.31583 2.26166 6.68291 3.49635 6.31583 4.96007C6.03423 4.36042 7.30454 2.08696 8.60889 3.65218C9.40783 4.61091 8.56859 5.55971 7.16062 5.55971C8.287 4.96007 9.61677 5.25989 9.3915 6.45918C9.1099 7.9583 7.60685 7.12139 7.04367 6.52175C8.45164 7.42122 8.17005 8.96492 7.00464 9.22016C5.83923 9.4754 5.55864 8.25812 5.75264 7.05883ZM5.75264 7.05883C5.74683 7.14326 5.77006 6.95117 5.75264 7.05883Z" stroke="#F1B312" stroke-width="0.5"/>
<path d="M10.1348 6.00001C10.1348 8.58723 8.15169 10.6565 5.73911 10.6565C3.32653 10.6565 1.34346 8.58723 1.34346 6.00001C1.34346 3.41279 3.32653 1.34349 5.73911 1.34349C8.15169 1.34349 10.1348 3.41279 10.1348 6.00001Z" stroke="#FDF2C9" stroke-width="0.6"/>
<path d="M10.4402 5.43158C10.4533 5.36121 10.4574 5.28565 10.4103 5.23186C10.3725 5.18863 10.347 5.14364 10.3345 5.08727C10.3129 4.99007 10.2982 4.87912 10.2534 4.78964" stroke="#FDF2C9" stroke-width="0.5" stroke-linecap="round"/>
<path d="M9.72852 3.34238C9.80931 3.38999 9.88791 3.46478 9.94444 3.54015C9.95665 3.55643 9.97776 3.57766 9.98529 3.59461C10.046 3.73117 10.1538 3.84754 10.1947 3.9908C10.224 4.09334 10.1827 4.21572 10.2304 4.31112" stroke="#FDF2C9" stroke-width="0.5" stroke-linecap="round"/>
<path d="M10.4052 4.97637C10.4025 4.84058 10.3306 4.66036 10.2392 4.55878C10.2213 4.53892 10.2002 4.51809 10.1944 4.492C10.1704 4.38393 10.0443 4.31365 10.0317 4.20604C10.0232 4.13403 10.0238 4.02812 9.99018 3.96094C9.94868 3.87793 9.88922 3.80547 9.8391 3.72751C9.7802 3.63588 9.73639 3.53245 9.68802 3.43572C9.66801 3.39571 9.6408 3.35944 9.62058 3.319C9.59643 3.27069 9.58491 3.20114 9.55315 3.16144C9.49528 3.0891 9.44621 3.00846 9.38067 2.94292C9.359 2.92125 9.30689 2.84735 9.27887 2.84112C9.20784 2.82533 9.10051 2.74965 9.05127 2.70041" stroke="#FDF2C9" stroke-width="0.5" stroke-linecap="round"/>
<path d="M10.2651 4.32278C10.2706 4.34778 10.2856 4.43876 10.3027 4.46025C10.3161 4.47698 10.3468 4.5166 10.3468 4.53871C10.3468 4.59696 10.3637 4.70028 10.3844 4.75463C10.4041 4.8061 10.3861 4.86657 10.4078 4.91803C10.4251 4.95921 10.4224 5.00912 10.4292 5.05355C10.4456 5.16044 10.4869 5.25936 10.4869 5.36804C10.4869 5.54091 10.4986 5.71398 10.4986 5.88937C10.4986 5.96314 10.4869 6.03099 10.4869 6.104C10.4869 6.23299 10.4699 6.36429 10.4661 6.4937C10.4649 6.53734 10.4712 6.59487 10.4629 6.64024C10.4582 6.66623 10.4623 6.75112 10.4402 6.76214" stroke="#FDF2C9" stroke-width="0.5" stroke-linecap="round"/>
<path d="M10.5105 6.68045C10.5076 6.85169 10.4758 6.98506 10.4081 7.13564C10.3577 7.24764 10.3074 7.37476 10.268 7.48838C10.2291 7.60075 10.1679 7.6983 10.128 7.81C10.1136 7.85035 10.0857 7.91451 10.0605 7.94682C10.0272 7.98964 10.0224 8.04841 10.0028 8.09855C9.92908 8.28698 9.85353 8.47325 9.76485 8.65554C9.73987 8.70688 9.72428 8.75503 9.69352 8.80208C9.6705 8.83729 9.65576 8.89999 9.6183 8.92139C9.59029 8.9374 9.56615 9.00857 9.5392 9.03552C9.50964 9.06507 9.48633 9.10582 9.45425 9.13148C9.42679 9.15345 9.39127 9.19725 9.35504 9.20151C9.32252 9.20534 9.28001 9.26821 9.25 9.28321" stroke="#FDF2C9" stroke-width="0.5" stroke-linecap="round"/>
<path d="M10.5337 6.80882C10.5583 6.75754 10.5804 6.69146 10.5804 6.63374C10.5804 6.6033 10.5778 6.53802 10.5629 6.51119C10.5375 6.46547 10.5326 6.33298 10.548 6.281C10.5689 6.21019 10.6037 6.13482 10.6037 6.06054C10.6037 5.9769 10.6534 5.82125 10.6037 5.7467" stroke="#FDF2C9" stroke-width="0.5" stroke-linecap="round"/>
<path d="M10.6565 6.00001C10.6565 8.57174 8.5717 10.6565 5.99998 10.6565C3.42825 10.6565 1.34346 8.57174 1.34346 6.00001C1.34346 3.42828 3.42825 1.34349 5.99998 1.34349C8.5717 1.34349 10.6565 3.42828 10.6565 6.00001Z" stroke="#9B7F35" stroke-width="0.6"/>
<path d="M6.78283 5.73913C6.69706 5.39604 5.47848 5.21741 5.21761 5.73913C4.79048 6.59337 7.0437 6.78262 6.78283 5.73913Z" fill="#FFE791" stroke="#FDF2C9" stroke-width="0.57"/>
<path d="M8.08691 3.3913C9.39126 4.17391 8.34778 5.04347 8.08691 5.21738" stroke="#FDF2C9" stroke-width="0.3"/>
<path d="M9.13063 5.73914C9.65237 6.52174 8.86976 7.13044 8.60889 7.04348" stroke="#FDF2C9" stroke-width="0.3"/>
<path d="M7.82607 7.82608C7.82607 8.34782 7.82607 8.86956 7.04346 9.13043" stroke="#FDF2C9" stroke-width="0.3"/>
<path d="M4.9565 0.521729C3.65215 0.782598 1.82607 1.56521 1.04346 3.39129" stroke="#FDF2C9" stroke-width="0.3"/>
</svg>
