<svg width="83" height="64" viewBox="0 0 83 64" fill="none" xmlns="http://www.w3.org/2000/svg">
<g clip-path="url(#clip0_1177_4226)">
<g filter="url(#filter0_d_1177_4226)">
<ellipse cx="19.1222" cy="5.21591" rx="4.12222" ry="4.21591" fill="#4F2303"/>
<ellipse cx="19.1221" cy="5.21588" rx="1.76667" ry="1.80682" fill="#E8B795"/>
<ellipse cx="40.3224" cy="5.21591" rx="4.12222" ry="4.21591" fill="#4F2303"/>
<ellipse cx="40.3223" cy="5.21588" rx="1.76667" ry="1.80682" fill="#E8B795"/>
<ellipse cx="63.8781" cy="5.21591" rx="4.12222" ry="4.21591" fill="#4F2303"/>
<ellipse cx="63.878" cy="5.21588" rx="1.76667" ry="1.80682" fill="#E8B795"/>
<ellipse cx="63.8781" cy="25.6932" rx="4.12222" ry="4.21591" fill="#4F2303"/>
<ellipse cx="63.878" cy="25.6932" rx="1.76667" ry="1.80682" fill="#E8B795"/>
<ellipse cx="63.8781" cy="49.784" rx="4.12222" ry="4.21591" fill="#4F2303"/>
<ellipse cx="63.878" cy="49.784" rx="1.76667" ry="1.80682" fill="#E8B795"/>
<ellipse cx="19.1222" cy="49.784" rx="4.12222" ry="4.21591" fill="#4F2303"/>
<ellipse cx="19.1221" cy="49.784" rx="1.76667" ry="1.80682" fill="#E8B795"/>
<ellipse cx="19.1222" cy="26.8975" rx="4.12222" ry="4.21591" fill="#4F2303"/>
<ellipse cx="19.1221" cy="26.8978" rx="1.76667" ry="1.80682" fill="#E8B795"/>
<ellipse cx="41.4997" cy="49.784" rx="4.12222" ry="4.21591" fill="#4F2303"/>
<ellipse cx="41.4996" cy="49.784" rx="1.76667" ry="1.80682" fill="#E8B795"/>
<rect x="22.0669" y="49.1819" width="5.88889" height="2.40909" fill="#4F2303"/>
<rect x="55.0444" y="49.1819" width="5.88889" height="2.40909" fill="#4F2303"/>
<rect x="33.8442" y="49.1819" width="5.88889" height="2.40909" fill="#4F2303"/>
<rect x="43.2671" y="49.1819" width="5.88889" height="2.40909" fill="#4F2303"/>
<rect x="22.0669" y="3.40906" width="16.4889" height="2.40909" fill="#4F2303"/>
<rect x="43.2671" y="3.40906" width="16.4889" height="2.40909" fill="#4F2303"/>
<rect x="17.3555" y="46.7727" width="16.8636" height="2.35556" transform="rotate(-90 17.3555 46.7727)" fill="#4F2303"/>
<rect x="17.3555" y="23.8864" width="16.8636" height="2.35556" transform="rotate(-90 17.3555 23.8864)" fill="#4F2303"/>
<rect x="63.2886" y="46.7727" width="16.8636" height="2.35556" transform="rotate(-90 63.2886 46.7727)" fill="#4F2303"/>
<rect x="63.2886" y="23.8864" width="16.8636" height="2.35556" transform="rotate(-90 63.2886 23.8864)" fill="#4F2303"/>
<rect x="25.6001" y="10.6364" width="9.42222" height="9.63636" fill="#FFDD63"/>
<rect x="24.4224" y="9.43164" width="11.7778" height="12.0455" fill="#FFC700" fill-opacity="0.46"/>
<rect x="25.6001" y="17.8636" width="9.42222" height="1.20455" fill="#7C1324"/>
<rect x="25.6001" y="11.8409" width="9.42222" height="1.20455" fill="#7C1324"/>
</g>
<rect x="47.3843" y="17.4827" width="4.53424" height="2.26712" rx="1.13356" transform="rotate(120 47.3843 17.4827)" fill="#E8B795"/>
<rect x="51.4644" y="10.4144" width="1.36027" height="0.453424" rx="0.226712" transform="rotate(120 51.4644 10.4144)" fill="#E8B795"/>
<rect x="50.2871" y="9.7345" width="1.81369" height="0.453424" rx="0.226712" transform="rotate(120 50.2871 9.7345)" fill="#E8B795"/>
<rect x="45.062" y="16.0635" width="1.81369" height="0.453424" rx="0.226712" transform="rotate(178.206 45.062 16.0635)" fill="#E8B795"/>
<rect x="49.0991" y="19.483" width="1.81369" height="0.453424" rx="0.226712" transform="rotate(-118.761 49.0991 19.483)" fill="#E8B795"/>
<circle cx="47.7096" cy="13.744" r="1.58698" transform="rotate(120 47.7096 13.744)" fill="white"/>
<circle cx="47.8151" cy="15.3757" r="1.58698" transform="rotate(120 47.8151 15.3757)" fill="white"/>
<circle cx="49.5908" cy="14.568" r="1.81369" transform="rotate(120 49.5908 14.568)" fill="white"/>
<ellipse cx="48.9265" cy="12.0904" rx="1.36027" ry="1.36027" transform="rotate(120 48.9265 12.0904)" fill="white"/>
<ellipse cx="47.6106" cy="17.0899" rx="1.36027" ry="1.36027" transform="rotate(120 47.6106 17.0899)" fill="white"/>
<ellipse cx="49.8611" cy="16.8188" rx="1.36027" ry="1.36027" transform="rotate(120 49.8611 16.8188)" fill="white"/>
<circle cx="50.4142" cy="12.6874" r="1.58698" transform="rotate(120 50.4142 12.6874)" fill="white"/>
<circle cx="46.4552" cy="17.7316" r="1.58698" transform="rotate(120 46.4552 17.7316)" fill="white"/>
<circle cx="47.2949" cy="12.1956" r="0.906847" transform="rotate(120 47.2949 12.1956)" fill="white"/>
<circle cx="46.4105" cy="15.088" r="2.04041" transform="rotate(120 46.4105 15.088)" fill="white"/>
<circle cx="45.3212" cy="19.6952" r="0.226712" transform="rotate(120 45.3212 19.6952)" fill="black"/>
<circle cx="44.5355" cy="19.2416" r="0.226712" transform="rotate(120 44.5355 19.2416)" fill="black"/>
<rect x="32.2402" y="32.2883" width="4.53424" height="2.26712" rx="1.13356" transform="rotate(-95.15 32.2402 32.2883)" fill="#E8B795"/>
<rect x="32.9727" y="40.4169" width="1.36027" height="0.453424" rx="0.226712" transform="rotate(-95.15 32.9727 40.4169)" fill="#E8B795"/>
<rect x="34.3271" y="40.2949" width="1.81369" height="0.453424" rx="0.226712" transform="rotate(-95.15 34.3271 40.2949)" fill="#E8B795"/>
<rect x="34.9556" y="32.1117" width="1.81369" height="0.453424" rx="0.226712" transform="rotate(-36.9435 34.9556 32.1117)" fill="#E8B795"/>
<rect x="29.686" y="31.64" width="1.81369" height="0.453424" rx="0.226712" transform="rotate(26.0887 29.686 31.64)" fill="#E8B795"/>
<circle cx="34.1261" cy="35.5327" r="1.58698" transform="rotate(-95.15 34.1261 35.5327)" fill="white"/>
<circle cx="33.1007" cy="34.2595" r="1.58698" transform="rotate(-95.15 33.1007 34.2595)" fill="white"/>
<ellipse cx="32.1143" cy="35.9416" rx="1.81369" ry="1.81369" transform="rotate(-95.15 32.1143 35.9416)" fill="white"/>
<ellipse cx="34.0833" cy="37.5853" rx="1.36027" ry="1.36027" transform="rotate(-95.15 34.0833 37.5853)" fill="white"/>
<ellipse cx="32.2805" cy="32.7397" rx="1.36027" ry="1.36027" transform="rotate(-95.15 32.2805 32.7397)" fill="white"/>
<ellipse cx="30.5964" cy="34.2575" rx="1.36027" ry="1.36027" transform="rotate(-95.15 30.5964 34.2575)" fill="white"/>
<circle cx="32.5231" cy="37.9534" r="1.58698" transform="rotate(-95.15 32.5231 37.9534)" fill="white"/>
<circle cx="32.8566" cy="31.5497" r="1.58698" transform="rotate(-95.15 32.8566 31.5497)" fill="white"/>
<ellipse cx="35.3569" cy="36.5601" rx="0.906847" ry="0.906847" transform="rotate(-95.15 35.3569 36.5601)" fill="white"/>
<circle cx="34.4149" cy="33.6857" r="2.04041" transform="rotate(-95.15 34.4149 33.6857)" fill="white"/>
<ellipse cx="32.6527" cy="29.2918" rx="0.226712" ry="0.226712" transform="rotate(-95.15 32.6527 29.2918)" fill="black"/>
<ellipse cx="33.556" cy="29.2104" rx="0.226712" ry="0.226712" transform="rotate(-95.15 33.556 29.2104)" fill="black"/>
</g>
<defs>
<filter id="filter0_d_1177_4226" x="9.7" y="1" width="63.6005" height="63.5999" filterUnits="userSpaceOnUse" color-interpolation-filters="sRGB">
<feFlood flood-opacity="0" result="BackgroundImageFix"/>
<feColorMatrix in="SourceAlpha" type="matrix" values="0 0 0 0 0 0 0 0 0 0 0 0 0 0 0 0 0 0 127 0" result="hardAlpha"/>
<feOffset dy="5.3"/>
<feGaussianBlur stdDeviation="2.65"/>
<feComposite in2="hardAlpha" operator="out"/>
<feColorMatrix type="matrix" values="0 0 0 0 0 0 0 0 0 0 0 0 0 0 0 0 0 0 0.25 0"/>
<feBlend mode="normal" in2="BackgroundImageFix" result="effect1_dropShadow_1177_4226"/>
<feBlend mode="normal" in="SourceGraphic" in2="effect1_dropShadow_1177_4226" result="shape"/>
</filter>
<clipPath id="clip0_1177_4226">
<rect width="83" height="64" fill="white"/>
</clipPath>
</defs>
</svg>
