<svg width="259" height="139" viewBox="0 0 259 139" fill="none" xmlns="http://www.w3.org/2000/svg">
<path d="M46.9916 38.3945C46.9916 36.5898 46.3471 35.1836 45.058 34.1758C43.7924 33.168 41.5541 32.125 38.3432 31.0469C35.1322 29.9688 32.5072 28.9258 30.4682 27.918C23.8353 24.6602 20.5189 20.1836 20.5189 14.4883C20.5189 11.6523 21.3392 9.15625 22.9799 7C24.6439 4.82031 26.9877 3.13281 30.0111 1.9375C33.0346 0.71875 36.433 0.109375 40.2064 0.109375C43.8861 0.109375 47.1791 0.765625 50.0853 2.07812C53.015 3.39062 55.2885 5.26563 56.9057 7.70312C58.5228 10.1172 59.3314 12.8828 59.3314 16H47.0267C47.0267 13.9141 46.3822 12.2969 45.0932 11.1484C43.8275 10 42.1049 9.42578 39.9252 9.42578C37.7221 9.42578 35.976 9.91797 34.6869 10.9023C33.4213 11.8633 32.7885 13.0937 32.7885 14.5938C32.7885 15.9062 33.4916 17.1016 34.8978 18.1797C36.3041 19.2344 38.7767 20.3359 42.3158 21.4844C45.8549 22.6094 48.7611 23.8281 51.0346 25.1406C56.5658 28.3281 59.3314 32.7227 59.3314 38.3242C59.3314 42.8008 57.6439 46.3164 54.2689 48.8711C50.8939 51.4258 46.265 52.7031 40.3822 52.7031C36.2338 52.7031 32.4721 51.9648 29.0971 50.4883C25.7455 48.9883 23.2142 46.9492 21.5033 44.3711C19.8158 41.7695 18.9721 38.7812 18.9721 35.4062H31.3471C31.3471 38.1484 32.0502 40.1758 33.4564 41.4883C34.8861 42.7773 37.1947 43.4219 40.3822 43.4219C42.4213 43.4219 44.0267 42.9883 45.1986 42.1211C46.3939 41.2305 46.9916 39.9883 46.9916 38.3945ZM108.291 52H96.0212V30.625H77.8454V52H65.5056V0.8125H77.8454V21.1328H96.0212V0.8125H108.291V52ZM147.723 30.3086H128.316V42.5078H151.238V52H115.977V0.8125H151.309V10.3398H128.316V21.1328H147.723V30.3086ZM187.858 30.3086H168.451V42.5078H191.373V52H156.112V0.8125H191.444V10.3398H168.451V21.1328H187.858V30.3086ZM208.587 34.6328V52H196.247V0.8125H216.672C220.587 0.8125 224.044 1.53906 227.044 2.99219C230.067 4.42188 232.399 6.47266 234.04 9.14453C235.704 11.793 236.536 14.8047 236.536 18.1797C236.536 23.1719 234.743 27.168 231.157 30.168C227.594 33.1445 222.696 34.6328 216.462 34.6328H208.587ZM208.587 25.1055H216.672C219.063 25.1055 220.88 24.5078 222.122 23.3125C223.387 22.1172 224.02 20.4297 224.02 18.25C224.02 15.8594 223.376 13.9492 222.087 12.5195C220.797 11.0898 219.04 10.3633 216.813 10.3398H208.587V25.1055ZM19.5412 119.93H12.8616V138H0.521713V86.8125H20.6662C26.7366 86.8125 31.4827 88.1602 34.9045 90.8555C38.3264 93.5508 40.0373 97.3594 40.0373 102.281C40.0373 105.844 39.3108 108.797 37.8577 111.141C36.428 113.484 34.178 115.383 31.1077 116.836L41.7952 137.473V138H28.5764L19.5412 119.93ZM12.8616 110.402H20.6662C23.01 110.402 24.7678 109.793 25.9397 108.574C27.135 107.332 27.7327 105.609 27.7327 103.406C27.7327 101.203 27.135 99.4805 25.9397 98.2383C24.7444 96.9727 22.9866 96.3398 20.6662 96.3398H12.8616V110.402ZM90.6841 113.461C90.6841 118.453 89.7583 122.871 87.9068 126.715C86.0552 130.559 83.4185 133.523 79.9966 135.609C76.5982 137.672 72.7193 138.703 68.3599 138.703C64.0005 138.703 60.1333 137.707 56.7583 135.715C53.3833 133.699 50.7466 130.828 48.8482 127.102C46.9732 123.375 45.9888 119.098 45.8951 114.27V111.387C45.8951 106.371 46.8091 101.953 48.6372 98.1328C50.4888 94.2891 53.1255 91.3242 56.5474 89.2383C59.9927 87.1523 63.9068 86.1094 68.2896 86.1094C72.6255 86.1094 76.4927 87.1406 79.8912 89.2031C83.2896 91.2656 85.9263 94.207 87.8013 98.0273C89.6997 101.824 90.6607 106.184 90.6841 111.105V113.461ZM78.1333 111.316C78.1333 106.23 77.2779 102.375 75.5669 99.75C73.8794 97.1016 71.4537 95.7773 68.2896 95.7773C62.1021 95.7773 58.8326 100.418 58.481 109.699L58.4458 113.461C58.4458 118.477 59.2779 122.332 60.9419 125.027C62.606 127.723 65.0787 129.07 68.3599 129.07C71.4771 129.07 73.8794 127.746 75.5669 125.098C77.2544 122.449 78.1099 118.641 78.1333 113.672V111.316ZM114.085 109.031L123.507 86.8125H136.831L120.343 119.613V138H107.827V119.613L91.3739 86.8125H104.628L114.085 109.031ZM164.204 128.438H147.294L144.341 138H131.157L149.931 86.8125H161.532L180.446 138H167.193L164.204 128.438ZM150.247 118.91H161.251L155.732 101.156L150.247 118.91ZM196.394 128.508H217.874V138H184.054V86.8125H196.394V128.508ZM254.67 116.309H235.263V128.508H258.185V138H222.924V86.8125H258.256V96.3398H235.263V107.133H254.67V116.309Z" fill="white"/>
</svg>
