<svg width="73" height="45" viewBox="0 0 73 45" fill="none" xmlns="http://www.w3.org/2000/svg">
<rect x="45.0925" y="18.6096" width="25.0514" height="13.2926" rx="2" fill="#FFE2CD"/>
<rect y="18.6096" width="7.51542" height="2.65853" rx="1.32926" fill="#FFE2CD"/>
<rect y="26.5853" width="10.0206" height="2.65853" rx="1.32926" fill="#FFE2CD"/>
<rect width="10.4674" height="2.54864" rx="1.27432" transform="matrix(0.504369 0.863488 -0.835445 0.549575 44.7167 34.5609)" fill="#FFE2CD"/>
<rect width="10.4726" height="2.5473" rx="1.27365" transform="matrix(-0.496219 0.868198 -0.840862 -0.54125 49.9259 4.03723)" fill="#FFE2CD"/>
<rect width="10.7858" height="2.6106" rx="1.3053" transform="matrix(-0.492701 -0.870199 0.84317 -0.537647 70.4479 37.3746)" fill="#6C6C6C"/>
<rect width="1.94467" height="2.6106" rx="0.972333" transform="matrix(-0.492699 -0.8702 0.843169 -0.537649 70.4479 37.3746)" fill="#FF7575"/>
<rect width="8.00344" height="2.6106" rx="1.3053" transform="matrix(-0.4927 -0.870199 0.843169 -0.537648 69.0769 34.9535)" fill="#555555"/>
<ellipse cx="26.304" cy="27.9145" rx="8.76799" ry="9.30484" fill="#E27E5E"/>
<ellipse cx="33.8194" cy="22.5974" rx="8.76799" ry="9.30484" fill="white"/>
<ellipse cx="25.0514" cy="15.9512" rx="10.0206" ry="10.6341" fill="#E27E5E"/>
<ellipse cx="15.0308" cy="26.5852" rx="7.51542" ry="7.97558" fill="#E27E5E"/>
<ellipse cx="40.0822" cy="18.6097" rx="7.51542" ry="7.97558" fill="#E27E5E"/>
<ellipse cx="35.0719" cy="7.97558" rx="7.51542" ry="7.97558" fill="#E27E5E"/>
<ellipse cx="13.7782" cy="17.2804" rx="8.76799" ry="9.30484" fill="#E27E5E"/>
<ellipse cx="48.8501" cy="22.5974" rx="8.76799" ry="9.30484" fill="#E27E5E"/>
<ellipse cx="20.0412" cy="34.5609" rx="5.01028" ry="5.31705" fill="#E27E5E"/>
<ellipse cx="36.3245" cy="30.573" rx="11.2731" ry="11.9634" fill="#E27E5E"/>
<ellipse cx="27.1651" cy="27.1667" rx="6.02799" ry="6.39708" fill="#A75035"/>
<ellipse cx="26.3039" cy="18.942" rx="6.88913" ry="7.31095" fill="#A75035"/>
<ellipse cx="19.4148" cy="26.2529" rx="5.16685" ry="5.48321" fill="#A75035"/>
<ellipse cx="36.6377" cy="20.7696" rx="5.16685" ry="5.48321" fill="#A75035"/>
<ellipse cx="33.1931" cy="13.4588" rx="5.16685" ry="5.48321" fill="#A75035"/>
<ellipse cx="18.5537" cy="19.8557" rx="6.02799" ry="6.39708" fill="#A75035"/>
<ellipse cx="42.6657" cy="23.5113" rx="6.02799" ry="6.39708" fill="#A75035"/>
<ellipse cx="22.8594" cy="31.7361" rx="3.44457" ry="3.65547" fill="#A75035"/>
<ellipse cx="34.0542" cy="28.9945" rx="7.75028" ry="8.22482" fill="#A75035"/>
<ellipse cx="61.3759" cy="22.5974" rx="1.25257" ry="1.32926" fill="black"/>
<ellipse cx="61.3759" cy="27.9146" rx="1.25257" ry="1.32926" fill="black"/>
</svg>
